<svg width="14" height="16" viewBox="0 0 14 16" fill="none" xmlns="http://www.w3.org/2000/svg">
<path fill-rule="evenodd" clip-rule="evenodd" d="M9.17641 0L8.54712 0.0117333H1.82333C0.936106 0.0117333 0.217834 0.657493 0.217834 1.45408V14.5574C0.217834 15.3542 0.936106 16 1.82333 16H12.1767C13.0639 16 13.7822 15.3542 13.7822 14.5574V4.79744L13.7831 4.23168L9.17641 0ZM12.3546 14.5574C12.3546 14.6458 12.2742 14.7174 12.1757 14.7174H1.82333C1.72414 14.7174 1.64441 14.6458 1.64441 14.5574V1.45408C1.64441 1.36661 1.72414 1.29493 1.82333 1.29493H8.54712V4.79744H12.3546V14.5574Z" fill="#26C281"/>
<path fill-rule="evenodd" clip-rule="evenodd" d="M8.60454 12.845H10.5733L7.98427 9.40673L10.1367 6.54828H8.16698L7 8.09921L5.83207 6.54828H3.86234L6.01478 9.40673L3.42596 12.845H7.70546L7.00925 11.8283H6.16024L7 10.7143L8.60454 12.845Z" fill="#26C281"/>
</svg>
